<svg xmlns="http://www.w3.org/2000/svg" width="320" height="640" viewBox="0 0 320 640" fill="none">
  <rect width="320" height="640" rx="36" fill="#085041"/>
  <rect x="24" y="52" width="272" height="40" rx="8" fill="#04342c"/>
  <text x="40" y="78" font-family="system-ui,sans-serif" font-size="11" fill="#5dcaa5" font-weight="600">PANTRY</text>
  <rect x="24" y="112" width="272" height="120" rx="12" fill="#0f6e56" opacity="0.45"/>
  <rect x="44" y="132" width="48" height="48" rx="6" fill="#e8a020" opacity="0.35"/>
  <rect x="104" y="132" width="48" height="48" rx="6" fill="#1d9e75" opacity="0.3"/>
  <rect x="164" y="132" width="48" height="48" rx="6" fill="#e1f5ee" opacity="0.08"/>
  <rect x="224" y="132" width="48" height="48" rx="6" fill="#e8a020" opacity="0.25"/>
  <rect x="24" y="248" width="272" height="120" rx="12" fill="#04342c" stroke="#0f6e56" stroke-width="1"/>
  <rect x="44" y="268" width="232" height="14" rx="4" fill="#5dcaa5" opacity="0.15"/>
  <rect x="44" y="292" width="180" height="14" rx="4" fill="#5dcaa5" opacity="0.1"/>
  <rect x="24" y="384" width="272" height="200" rx="12" fill="#04342c" opacity="0.9"/>
  <text x="40" y="418" font-family="system-ui,sans-serif" font-size="10" fill="#2ab88a">SHELF 3</text>
  <rect x="40" y="430" width="60" height="72" rx="8" fill="#e8a020" opacity="0.2"/>
  <rect x="112" y="438" width="52" height="56" rx="8" fill="#1d9e75" opacity="0.25"/>
</svg>
