<?xml version="1.0" encoding="UTF-8"?>
<svg xmlns="http://www.w3.org/2000/svg" viewBox="0 0 852 284" width="852" height="284" role="img">
  <title>GrubShelf wordmark</title>
  <desc>GrubShelf logotype (text only)</desc>
  <g transform="translate(16 216.00)">
    <path fill="#1a1a18" d="M52 42.80L52 42.80Q36.60 42.80 24.80 37.30Q13 31.80 6 21.80L6 21.80L22.60 5.20Q28.20 11.80 35.10 15.30Q42 18.80 51.80 18.80L51.80 18.80Q64 18.80 71.10 12.60Q78.20 6.40 78.20-4.60L78.20-4.60L78.20-28.80L82.60-50L78.40-71.20L78.40-96.60L104.40-96.60L104.40-5Q104.40 9.40 97.70 20.10Q91 30.80 79.20 36.80Q67.40 42.80 52 42.80ZM50.80-2.60L50.80-2.60Q37.80-2.60 27.40-8.90Q17-15.20 11.10-26.20Q5.20-37.20 5.20-50.80L5.20-50.80Q5.20-64.40 11.10-75.20Q17-86 27.40-92.30Q37.80-98.60 50.80-98.60L50.80-98.60Q61.60-98.60 69.90-94.40Q78.20-90.20 83-82.90Q87.80-75.60 88.20-65.80L88.20-65.80L88.20-35.40Q87.80-25.80 82.90-18.30Q78-10.80 69.70-6.70Q61.40-2.60 50.80-2.60ZM56-26.40L56-26.40Q63.20-26.40 68.50-29.50Q73.80-32.60 76.80-38.10Q79.80-43.60 79.80-50.60L79.80-50.60Q79.80-57.80 76.80-63.20Q73.80-68.60 68.50-71.70Q63.20-74.80 56-74.80L56-74.80Q48.80-74.80 43.40-71.70Q38-68.60 35-63.10Q32-57.60 32-50.60L32-50.60Q32-43.80 35-38.30Q38-32.80 43.40-29.60Q48.80-26.40 56-26.40ZM148.60 0L122.40 0L122.40-96.60L148.60-96.60L148.60 0ZM148.60-53.40L148.60-53.40L138.40-60.20Q140.20-78 148.80-88.30Q157.40-98.60 173.60-98.60L173.60-98.60Q180.60-98.60 186.20-96.30Q191.80-94 196.40-88.80L196.40-88.80L180-70Q177.80-72.40 174.70-73.60Q171.60-74.80 167.60-74.80L167.60-74.80Q159.20-74.80 153.90-69.50Q148.60-64.20 148.60-53.40ZM241.80 2L241.80 2Q229.00 2 219.10-3.40Q209.20-8.80 203.60-18.40Q198.00-28 198.00-40.60L198.00-40.60L198.00-96.60L224.40-96.60L224.40-41.20Q224.40-35.20 226.40-30.90Q228.40-26.60 232.40-24.40Q236.40-22.20 241.80-22.20L241.80-22.20Q250.00-22.20 254.60-27.20Q259.20-32.20 259.20-41.20L259.20-41.20L259.20-96.60L285.40-96.60L285.40-40.60Q285.40-27.80 279.90-18.20Q274.40-8.60 264.50-3.30Q254.60 2 241.80 2ZM354.80 2L354.80 2Q344.40 2 336-2.40Q327.60-6.80 322.60-14.40Q317.60-22 317.20-31.40L317.20-31.40L317.20-65.80Q317.60-75.20 322.70-82.70Q327.80-90.20 336.20-94.40Q344.60-98.60 354.80-98.60L354.80-98.60Q368.20-98.60 378.80-92Q389.40-85.40 395.50-74Q401.60-62.60 401.60-48.20L401.60-48.20Q401.60-34 395.50-22.60Q389.40-11.20 378.80-4.60Q368.20 2 354.80 2ZM327.20 0L301.20 0L301.20-144.60L327.40-144.60L327.40-72.80L323-49.60L327.20-26L327.20 0ZM350.40-22.20L350.40-22.20Q357.60-22.20 363.10-25.50Q368.60-28.80 371.70-34.70Q374.80-40.60 374.80-48.40L374.80-48.40Q374.80-56 371.70-61.90Q368.60-67.80 363-71.10Q357.40-74.40 350.20-74.40L350.20-74.40Q343-74.40 337.50-71.10Q332-67.80 328.90-61.90Q325.80-56 325.80-48.40L325.80-48.40Q325.80-40.60 328.90-34.70Q332-28.80 337.60-25.50Q343.20-22.20 350.40-22.20ZM447.00 2.20L447.00 2.20Q438.80 2.20 430.90 0Q423.00-2.20 416.40-6.10Q409.80-10 405.00-15.60L405.00-15.60L420.60-31.40Q425.60-25.80 432.20-23Q438.80-20.20 446.80-20.20L446.80-20.20Q453.20-20.20 456.50-22Q459.80-23.80 459.80-27.40L459.80-27.40Q459.80-31.40 456.30-33.60Q452.80-35.80 447.20-37.30Q441.60-38.80 435.50-40.70Q429.40-42.60 423.80-45.70Q418.20-48.80 414.70-54.30Q411.20-59.80 411.20-68.60L411.20-68.60Q411.20-77.80 415.70-84.60Q420.20-91.40 428.60-95.20Q437.00-99 448.40-99L448.40-99Q460.40-99 470.10-94.80Q479.80-90.60 486.20-82.20L486.20-82.20L470.40-66.40Q466.00-71.80 460.50-74.20Q455.00-76.60 448.60-76.60L448.60-76.60Q442.80-76.60 439.70-74.80Q436.60-73 436.60-69.80L436.60-69.80Q436.60-66.20 440.10-64.20Q443.60-62.20 449.20-60.70Q454.80-59.20 460.90-57.30Q467.00-55.40 472.50-52Q478.00-48.60 481.50-43Q485.00-37.40 485.00-28.60L485.00-28.60Q485.00-14.40 474.80-6.10Q464.60 2.20 447.00 2.20ZM588.80 0L562.60 0L562.60-55.40Q562.60-64 557.20-69.40Q551.80-74.80 543.20-74.80L543.20-74.80Q537.60-74.80 533.20-72.40Q528.80-70 526.30-65.60Q523.80-61.20 523.80-55.40L523.80-55.40L513.60-60.60Q513.60-72 518.40-80.50Q523.20-89 531.70-93.80Q540.20-98.60 551.20-98.60L551.20-98.60Q562.20-98.60 570.70-93.80Q579.20-89 584-80.60Q588.80-72.20 588.80-61.20L588.80-61.20L588.80 0ZM523.80 0L497.60 0L497.60-144.60L523.80-144.60L523.80 0ZM651.20 2L651.20 2Q636.00 2 624.20-4.50Q612.40-11 605.50-22.40Q598.60-33.80 598.60-48.40L598.60-48.40Q598.60-62.80 605.30-74.10Q612.00-85.40 623.60-92.10Q635.20-98.80 649.40-98.80L649.40-98.80Q663.40-98.80 674.10-92.50Q684.80-86.20 690.90-75.30Q697.00-64.40 697.00-50.60L697.00-50.60Q697.00-48 696.70-45.30Q696.40-42.60 695.60-39.20L695.60-39.20L614.40-39L614.40-58.60L683.40-58.80L672.80-50.60Q672.40-59.20 669.70-65Q667.00-70.80 661.90-73.90Q656.80-77 649.40-77L649.40-77Q641.60-77 635.80-73.50Q630.00-70 626.90-63.70Q623.80-57.40 623.80-48.80L623.80-48.80Q623.80-40 627.10-33.50Q630.40-27 636.60-23.50Q642.80-20 651.00-20L651.00-20Q658.40-20 664.40-22.50Q670.40-25 674.80-30L674.80-30L690.20-14.60Q683.20-6.40 673.10-2.20Q663.00 2 651.20 2ZM734.40 0L708.20 0L708.20-144.60L734.40-144.60L734.40 0ZM791.60 0L765.40 0L765.40-107Q765.40-118.60 770.40-127.50Q775.40-136.40 784.60-141.60Q793.80-146.80 806.20-146.80L806.20-146.80Q815.60-146.80 822.40-143.60Q829.20-140.40 834.60-134.80L834.60-134.80L818.00-118Q815.80-120.20 813.20-121.40Q810.60-122.60 806.60-122.60L806.60-122.60Q799.40-122.60 795.50-118.70Q791.60-114.80 791.60-107.60L791.60-107.60L791.60 0ZM820.20-73.60L743.00-73.60L743.00-96.60L820.20-96.60L820.20-73.60Z" />
  </g>
</svg>
